<svg width="88" height="88" viewBox="0 0 88 88" fill="none" xmlns="http://www.w3.org/2000/svg">
<path fill-rule="evenodd" clip-rule="evenodd" d="M81 44C81 64.4345 64.4345 81 44 81C23.5655 81 7 64.4345 7 44C7 23.5655 23.5655 7 44 7C64.4345 7 81 23.5655 81 44ZM88 44C88 68.3005 68.3005 88 44 88C19.6995 88 0 68.3005 0 44C0 19.6995 19.6995 0 44 0C68.3005 0 88 19.6995 88 44ZM63.9183 24.2027C64.7936 25.6094 64.5424 27.6883 63.3571 28.846L50.0196 41.8737C49.2118 42.6627 49.2169 43.9636 50.031 44.7462L63.1095 57.3196C64.3039 58.4679 64.5707 60.5442 63.7054 61.9571C62.84 63.37 61.1703 63.5846 59.9759 62.4363L45.7459 48.756C44.9673 48.0074 43.735 48.0123 42.9623 48.767L28.6919 62.7058C27.5067 63.8636 25.8362 63.6617 24.9609 62.2549C24.0855 60.8482 24.3367 58.7693 25.522 57.6116L38.6463 44.7922C39.4541 44.0031 39.449 42.7022 38.6349 41.9196L25.104 28.9113C23.9096 27.763 23.6428 25.6867 24.5081 24.2738C25.3735 22.8609 27.0432 22.6463 28.2376 23.7946L42.92 37.9099C43.6986 38.6585 44.9309 38.6536 45.7036 37.8989L60.1872 23.7518C61.3725 22.594 63.0429 22.7959 63.9183 24.2027Z" fill="#C9C9C9"/>
</svg>
