<svg width="20" height="20" viewBox="0 0 20 20" fill="none" xmlns="http://www.w3.org/2000/svg">
<rect x="1" y="1" width="18" height="18" rx="5" stroke="white" stroke-width="2"/>
<path fill-rule="evenodd" clip-rule="evenodd" d="M6.81795 5.40381C6.62269 5.20854 6.3061 5.20854 6.11084 5.40381L5.40374 6.11091C5.20847 6.30617 5.20847 6.62276 5.40374 6.81802L8.23216 9.64645C8.42742 9.84171 8.42742 10.1583 8.23216 10.3536L5.40374 13.182C5.20847 13.3772 5.20847 13.6938 5.40374 13.8891L6.11084 14.5962C6.3061 14.7915 6.62269 14.7915 6.81795 14.5962L9.64638 11.7678C9.84164 11.5725 10.1582 11.5725 10.3535 11.7678L13.1819 14.5962C13.3772 14.7915 13.6938 14.7915 13.889 14.5962L14.5961 13.8891C14.7914 13.6938 14.7914 13.3772 14.5961 13.182L11.7677 10.3536C11.5724 10.1583 11.5724 9.84171 11.7677 9.64645L14.5961 6.81802C14.7914 6.62276 14.7914 6.30617 14.5961 6.11091L13.889 5.40381C13.6938 5.20854 13.3772 5.20854 13.1819 5.40381L10.3535 8.23223C10.1582 8.4275 9.84164 8.4275 9.64638 8.23223L6.81795 5.40381Z" fill="#FEFFFF"/>
</svg>
